# File created by Blade
# Date/Time:  Wed Jan 21 16:09:38 2015
# Frame Rate: 120.000 fps
#------------------------------------------------------
:FULLY-SPECIFIED
:DEGREES
930
root 19.270650 34.961979 -23.898256 -177.230525 0.458079 -177.834625
Spine -13.703238 0.198826 3.651802
Head 8.104775 -2.417490 -1.460507
LeftShoulder -14.536197 -33.159301 17.402396
LeftArm 8.579629 7.455953 -11.900152
LeftForeArm 9.581678 0.000000 -2.528453
LeftHand -8.802040 -0.000000 -2.735322
LeftHandThumb1 -26.253704 0.000000 33.147579
RightShoulder -12.462223 -4.532246 -10.051370
RightArm 11.573765 40.413056 16.392748
RightForeArm -32.250307 -0.000000 4.355818
RightHand -10.855198 -0.000000 2.383838
RightHandThumb1 -24.326973 -0.000000 -32.862282
LeftUpLeg 9.267428 0.666602 7.338891
LeftLeg -14.109518 -0.000000 0.000000
LeftFoot -1.318952 21.752752 10.441799
LeftToeBase -139.257469 -0.000000 0.000000
RightUpLeg 7.189596 -9.233071 -4.410687
RightLeg -3.675913 -0.000000 0.000000
RightFoot -21.710800 -20.423803 17.633264
RightToeBase 24.531368 -0.000000 -0.000000
931
root 19.269149 34.961772 -23.900313 -177.199578 0.481339 -177.839979
Spine -13.733282 0.219611 3.639331
Head 8.102979 -2.421309 -1.491257
LeftShoulder -14.527114 -33.180074 17.406820
LeftArm 8.544650 7.462449 -11.886537
LeftForeArm 9.524366 -0.000000 -2.519302
LeftHand -8.830347 -0.000000 -2.739193
LeftHandThumb1 -26.253704 0.000000 33.147579
RightShoulder -12.463967 -4.541786 -10.056281
RightArm 11.562828 40.314990 16.430244
RightForeArm -32.160728 -0.000000 4.316769
RightHand -10.718457 0.000000 2.313704
RightHandThumb1 -24.326973 -0.000000 -32.862282
LeftUpLeg 9.246300 0.693071 7.328272
LeftLeg -14.111345 -0.000000 0.000000
LeftFoot -1.326617 21.758857 10.433117
LeftToeBase -139.240070 -0.000000 0.000000
RightUpLeg 7.163056 -9.260851 -4.420741
RightLeg -3.689328 -0.000000 0.000000
RightFoot -21.668753 -20.358525 17.677446
RightToeBase 24.326615 -0.000000 -0.000000
932
root 19.268734 34.961711 -23.900795 -177.163967 0.498877 -177.841192
Spine -13.762959 0.237286 3.629844
Head 8.069879 -2.412263 -1.510207
LeftShoulder -14.505824 -33.235333 17.417311
LeftArm 8.478210 7.474070 -11.878358
LeftForeArm 9.497369 -0.000000 -2.503642
LeftHand -8.874558 -0.000000 -2.788503
LeftHandThumb1 -26.253704 0.000000 33.147579
RightShoulder -12.468106 -4.561007 -10.040358
RightArm 11.555107 40.285930 16.454450
RightForeArm -32.194356 -0.000000 4.297953
RightHand -10.820300 -0.000000 2.357894
RightHandThumb1 -24.326973 -0.000000 -32.862282
LeftUpLeg 9.212464 0.691340 7.323717
LeftLeg -14.103925 -0.000000 0.000000
LeftFoot -1.327730 21.776497 10.445238
LeftToeBase -139.235342 -0.000000 0.000000
RightUpLeg 7.133649 -9.262856 -4.420433
RightLeg -3.703847 -0.000000 0.000000
RightFoot -21.674054 -20.350384 17.646007
RightToeBase 24.454421 -0.000000 -0.000000
933
root 19.267750 34.961588 -23.902149 -177.133061 0.508881 -177.849864
Spine -13.790269 0.239781 3.614232
Head 8.054980 -2.379795 -1.527275
LeftShoulder -14.494940 -33.246982 17.423690
LeftArm 8.429086 7.429195 -11.875606
LeftForeArm 9.497200 0.000000 -2.487615
LeftHand -8.902875 0.000000 -2.776610
LeftHandThumb1 -26.253704 0.000000 33.147579
RightShoulder -12.450170 -4.533360 -10.038375
RightArm 11.507908 40.229917 16.463389
RightForeArm -32.195232 0.000000 4.264033
RightHand -10.837830 -0.000000 2.386342
RightHandThumb1 -24.326973 -0.000000 -32.862282
LeftUpLeg 9.185420 0.703971 7.310249
LeftLeg -14.103880 -0.000000 0.000000
LeftFoot -1.321474 21.783890 10.439067
LeftToeBase -139.242263 -0.000000 0.000000
RightUpLeg 7.107258 -9.290238 -4.431640
RightLeg -3.709673 -0.000000 0.000000
RightFoot -21.678102 -20.306106 17.646017
RightToeBase 24.478284 -0.000000 -0.000000
934
root 19.266987 34.961737 -23.903563 -177.097943 0.515929 -177.851888
Spine -13.823991 0.249982 3.606832
Head 8.034978 -2.357748 -1.537624
LeftShoulder -14.473912 -33.278699 17.422052
LeftArm 8.381687 7.412748 -11.870343
LeftForeArm 9.510523 -0.000000 -2.488599
LeftHand -8.913700 0.000000 -2.760990
LeftHandThumb1 -26.253704 0.000000 33.147579
RightShoulder -12.467130 -4.545863 -10.031015
RightArm 11.528093 40.275250 16.534618
RightForeArm -32.250776 0.000000 4.249118
RightHand -10.851859 -0.000000 2.368390
RightHandThumb1 -24.326973 -0.000000 -32.862282
LeftUpLeg 9.157341 0.697619 7.304212
LeftLeg -14.110529 -0.000000 0.000000
LeftFoot -1.299994 21.805640 10.443433
LeftToeBase -139.251829 -0.000000 0.000000
RightUpLeg 7.084515 -9.311471 -4.435197
RightLeg -3.731550 -0.000000 0.000000
RightFoot -21.644429 -20.232552 17.720398
RightToeBase 24.345882 -0.000000 -0.000000
935
root 19.265781 34.961277 -23.905444 -177.075836 0.516446 -177.857283
Spine -13.841553 0.244236 3.598867
Head 8.013929 -2.315590 -1.551840
LeftShoulder -14.467002 -33.290841 17.426451
LeftArm 8.346619 7.397174 -11.865340
LeftForeArm 9.509215 0.000000 -2.495088
LeftHand -8.921834 0.000000 -2.759646
LeftHandThumb1 -26.253704 0.000000 33.147579
RightShoulder -12.459535 -4.535843 -10.029495
RightArm 11.517211 40.347231 16.593004
RightForeArm -32.219028 -0.000000 4.220491
RightHand -10.717870 -0.000000 2.259779
RightHandThumb1 -24.326973 -0.000000 -32.862282
LeftUpLeg 9.139370 0.699056 7.294231
LeftLeg -14.114387 -0.000000 0.000000
LeftFoot -1.290890 21.826362 10.444938
LeftToeBase -139.267336 -0.000000 0.000000
RightUpLeg 7.070768 -9.352846 -4.445301
RightLeg -3.739102 -0.000000 0.000000
RightFoot -21.644069 -20.225103 17.664366
RightToeBase 24.701806 -0.000000 -0.000000
936
root 19.264570 34.960825 -23.906771 -177.049100 0.516527 -177.868925
Spine -13.864261 0.234428 3.583469
Head 7.995053 -2.269671 -1.564199
LeftShoulder -14.459621 -33.314964 17.438449
LeftArm 8.296728 7.391865 -11.864608
LeftForeArm 9.505387 -0.000000 -2.499604
LeftHand -8.928901 0.000000 -2.736564
LeftHandThumb1 -26.253704 0.000000 33.147579
RightShoulder -12.457046 -4.533919 -10.020277
RightArm 11.520116 40.424090 16.651653
RightForeArm -32.194068 -0.000000 4.209772
RightHand -10.801265 -0.000000 2.309337
RightHandThumb1 -24.326973 -0.000000 -32.862282
LeftUpLeg 9.116970 0.699797 7.279410
LeftLeg -14.118310 -0.000000 0.000000
LeftFoot -1.288125 21.824573 10.439110
LeftToeBase -139.264204 -0.000000 0.000000
RightUpLeg 7.052073 -9.378078 -4.458375
RightLeg -3.748536 -0.000000 0.000000
RightFoot -21.645212 -20.196897 17.664263
RightToeBase 24.467707 -0.000000 -0.000000
937
root 19.262289 34.960920 -23.908272 -177.013739 0.512546 -177.880295
Spine -13.900203 0.235756 3.571864
Head 7.981157 -2.236054 -1.588295
LeftShoulder -14.449204 -33.336709 17.441433
LeftArm 8.263712 7.403330 -11.868232
LeftForeArm 9.498538 0.000000 -2.506590
LeftHand -8.951052 -0.000000 -2.730635
LeftHandThumb1 -26.253704 0.000000 33.147579
RightShoulder -12.461381 -4.503863 -10.027891
RightArm 11.497959 40.494037 16.709219
RightForeArm -32.191240 0.000000 4.195074
RightHand -10.855417 -0.000000 2.204567
RightHandThumb1 -24.326973 -0.000000 -32.862282
LeftUpLeg 9.084687 0.696957 7.261644
LeftLeg -14.121716 -0.000000 0.000000
LeftFoot -1.283373 21.835069 10.422956
LeftToeBase -139.292623 -0.000000 0.000000
RightUpLeg 7.022042 -9.410746 -4.470504
RightLeg -3.753760 -0.000000 0.000000
RightFoot -21.642923 -20.179253 17.654422
RightToeBase 24.538752 -0.000000 -0.000000
938
root 19.260846 34.960780 -23.909046 -176.983296 0.508070 -177.884072
Spine -13.921148 0.220825 3.569248
Head 7.951049 -2.171899 -1.602110
LeftShoulder -14.457215 -33.362508 17.462690
LeftArm 8.216053 7.407802 -11.879170
LeftForeArm 9.505771 0.000000 -2.508085
LeftHand -8.956700 0.000000 -2.681829
LeftHandThumb1 -26.253704 0.000000 33.147579
RightShoulder -12.465107 -4.475249 -10.015883
RightArm 11.499814 40.585168 16.756218
RightForeArm -32.206164 -0.000000 4.189643
RightHand -10.896233 0.000000 2.264489
RightHandThumb1 -24.326973 -0.000000 -32.862282
LeftUpLeg 9.058640 0.710303 7.254249
LeftLeg -14.129842 -0.000000 0.000000
LeftFoot -1.284866 21.827970 10.411652
LeftToeBase -139.288532 -0.000000 0.000000
RightUpLeg 7.001063 -9.423793 -4.473696
RightLeg -3.767957 -0.000000 0.000000
RightFoot -21.634373 -20.171040 17.664803
RightToeBase 24.539044 -0.000000 -0.000000
939
root 19.259701 34.960324 -23.911107 -176.957743 0.493108 -177.889740
Spine -13.947769 0.198834 3.564281
Head 7.935372 -2.128286 -1.614968
LeftShoulder -14.457152 -33.366125 17.469488
LeftArm 8.189006 7.425679 -11.876381
LeftForeArm 9.476330 -0.000000 -2.513989
LeftHand -8.990624 -0.000000 -2.670538
LeftHandThumb1 -26.253704 0.000000 33.147579
RightShoulder -12.470867 -4.485623 -10.007146
RightArm 11.518330 40.677311 16.814766
RightForeArm -32.173554 -0.000000 4.156914
RightHand -10.789887 -0.000000 2.207165
RightHandThumb1 -24.326973 -0.000000 -32.862282
LeftUpLeg 9.038293 0.698955 7.247213
LeftLeg -14.143764 -0.000000 0.000000
LeftFoot -1.272683 21.832390 10.406596
LeftToeBase -139.298659 -0.000000 0.000000
RightUpLeg 6.994487 -9.427856 -4.475274
RightLeg -3.793323 -0.000000 0.000000
RightFoot -21.631772 -20.188865 17.682741
RightToeBase 24.491759 -0.000000 -0.000000
940
root 19.257702 34.959491 -23.913624 -176.931372 0.478342 -177.902972
Spine -13.979892 0.180774 3.552477
Head 7.929832 -2.081544 -1.631759
LeftShoulder -14.446285 -33.346884 17.477367
LeftArm 8.152666 7.345570 -11.896297
LeftForeArm 9.533642 -0.000000 -2.527358
LeftHand -8.962395 0.000000 -2.669093
LeftHandThumb1 -26.253704 0.000000 33.147579
RightShoulder -12.461293 -4.455584 -10.014841
RightArm 11.482487 40.707562 16.842383
RightForeArm -32.156350 -0.000000 4.128342
RightHand -10.788485 -0.000000 2.129504
RightHandThumb1 -24.326973 -0.000000 -32.862282
LeftUpLeg 9.017512 0.694867 7.230625
LeftLeg -14.151061 -0.000000 0.000000
LeftFoot -1.273438 21.822650 10.408887
LeftToeBase -139.315888 -0.000000 0.000000
RightUpLeg 6.983706 -9.454158 -4.488016
RightLeg -3.810829 -0.000000 0.000000
RightFoot -21.629284 -20.189265 17.659637
RightToeBase 24.530103 -0.000000 -0.000000
941
root 19.256220 34.959114 -23.914726 -176.900694 0.456100 -177.908943
Spine -14.012957 0.169178 3.551706
Head 7.926884 -2.031495 -1.663652
LeftShoulder -14.418465 -33.332652 17.460375
LeftArm 8.112322 7.356268 -11.894270
LeftForeArm 9.487330 -0.000000 -2.511784
LeftHand -8.979007 0.000000 -2.673350
LeftHandThumb1 -26.253704 0.000000 33.147579
RightShoulder -12.461589 -4.414002 -10.028159
RightArm 11.423341 40.756386 16.855901
RightForeArm -32.216718 -0.000000 4.149436
RightHand -10.793863 -0.000000 2.217257
RightHandThumb1 -24.326973 -0.000000 -32.862282
LeftUpLeg 8.987490 0.691373 7.223899
LeftLeg -14.163106 -0.000000 0.000000
LeftFoot -1.278233 21.812092 10.405330
LeftToeBase -139.359739 -0.000000 0.000000
RightUpLeg 6.965710 -9.445554 -4.487152
RightLeg -3.824513 -0.000000 0.000000
RightFoot -21.640050 -20.226966 17.663642
RightToeBase 24.541201 -0.000000 -0.000000
